<svg xmlns="http://www.w3.org/2000/svg" viewBox="0 0 48 48" width="48px" height="48px">
  <path fill="#EA4335" d="M24 9.5c3.15 0 5.95 1.14 8.17 3.02l6.1-6.1C34.32 3.31 29.47 1.5 24 1.5 14.89 1.5 7.29 7.57 4.69 15.66l7.39 5.74C13.71 16.43 18.48 9.5 24 9.5z" />
  <path fill="#34A853" d="M24 46.5c5.28 0 10.01-1.89 13.72-5.06l-7.13-5.88C28.6 37.63 26.36 38.5 24 38.5c-6.2 0-11.47-4.16-13.34-9.84l-7.39 5.72C7.29 40.44 14.89 46.5 24 46.5z" />
  <path fill="#4CAF50" d="M10.66 28.66C10.23 27.1 10 25.57 10 24s.23-3.1.66-4.66l-7.39-5.74C2.51 16.84 2 20.34 2 24s.51 7.16 1.27 10.4l7.39-5.74z" />
  <path fill="#FBBC05" d="M46 20H24v8h12.91C35.15 33.9 29.93 38 24 38c-2.35 0-4.6-.87-6.32-2.32L10.34 34c3.43 4.55 8.75 7.5 14.66 7.5 6.48 0 11.32-3.36 14.04-7.64 2.18-3.44 2.96-7.45 2.96-10.86 0-.83-.07-1.67-.2-2.5H46z" />
</svg>
