<svg xmlns="http://www.w3.org/2000/svg" xmlns:xlink="http://www.w3.org/1999/xlink" width="500" zoomAndPan="magnify" viewBox="0 0 375 374.999991" height="500" preserveAspectRatio="xMidYMid meet" version="1.0"><defs><clipPath id="752bffbc98"><path d="M 183 158 L 249.9375 158 L 249.9375 192 L 183 192 Z M 183 158 " clip-rule="nonzero"/></clipPath><clipPath id="0ef4f7db66"><path d="M 125.4375 123.519531 L 172 123.519531 L 172 200 L 125.4375 200 Z M 125.4375 123.519531 " clip-rule="nonzero"/></clipPath><clipPath id="6973c8f549"><path d="M 139 189 L 213 189 L 213 251.769531 L 139 251.769531 Z M 139 189 " clip-rule="nonzero"/></clipPath><clipPath id="d62ed8c669"><path d="M 139 189 L 213 189 L 213 251.769531 L 139 251.769531 Z M 139 189 " clip-rule="nonzero"/></clipPath><clipPath id="028556532d"><path d="M 125.4375 123.519531 L 159 123.519531 L 159 169 L 125.4375 169 Z M 125.4375 123.519531 " clip-rule="nonzero"/></clipPath></defs><rect x="-37.5" width="450" fill="#ffffff" y="-37.499999" height="449.999989" fill-opacity="1"/><rect x="-37.5" width="450" fill="#ffffff" y="-37.499999" height="449.999989" fill-opacity="1"/><g clip-path="url(#752bffbc98)"><path fill="#f9a723" d="M 206.40625 191.996094 L 236.167969 188.160156 L 249.847656 158.660156 L 183.191406 177.367188 L 206.40625 191.996094 " fill-opacity="1" fill-rule="nonzero"/></g><g clip-path="url(#0ef4f7db66)"><path fill="#f2582c" d="M 156.96875 199.910156 L 125.527344 123.519531 L 171.953125 186.617188 L 156.96875 199.910156 " fill-opacity="1" fill-rule="nonzero"/></g><path fill="#e14f20" d="M 167.703125 180.84375 L 149.597656 182.007812 L 156.726562 199.070312 Z M 167.703125 180.84375 " fill-opacity="1" fill-rule="nonzero"/><path fill="#c14620" d="M 196.238281 195.832031 L 210.785156 225.054688 L 238.6875 140.3125 L 235.566406 138.960938 L 196.238281 195.832031 " fill-opacity="1" fill-rule="nonzero"/><path fill="#f2582c" d="M 197.289062 185.761719 L 229.207031 136.597656 L 237.605469 140.675781 L 206.648438 225.09375 L 197.289062 185.761719 " fill-opacity="1" fill-rule="nonzero"/><path fill="#f46f28" d="M 229.207031 136.597656 L 246.007812 144.929688 L 242.046875 134.136719 L 229.207031 136.597656 " fill-opacity="1" fill-rule="nonzero"/><path fill="#d34b1f" d="M 229.207031 136.597656 L 237.605469 140.761719 L 237.480469 141.324219 C 237.480469 141.324219 229.644531 137.617188 229.207031 136.597656 " fill-opacity="1" fill-rule="nonzero"/><path fill="#f46f28" d="M 206.648438 225.09375 L 212.886719 189.359375 L 183.191406 162.019531 L 160.269531 189.839844 L 165.433594 225.09375 L 188.167969 210.941406 L 206.648438 225.09375 " fill-opacity="1" fill-rule="nonzero"/><path fill="#f2582c" d="M 191.105469 213.101562 L 200.734375 220.566406 L 209.527344 206.148438 L 212.886719 189.839844 L 191.105469 213.101562 " fill-opacity="1" fill-rule="nonzero"/><g clip-path="url(#6973c8f549)"><path fill="#f68b25" d="M 160.269531 189.839844 L 212.886719 189.359375 L 209.109375 200.691406 L 139.265625 251.773438 L 150.789062 199.789062 L 160.269531 189.839844 " fill-opacity="1" fill-rule="nonzero"/></g><path fill="#f2582c" d="M 160.269531 189.839844 L 180.9375 184.140625 L 183.191406 162.019531 L 187.417969 184.050781 L 212.886719 189.359375 L 160.269531 189.839844 " fill-opacity="1" fill-rule="nonzero"/><path fill="#d84d20" d="M 183.191406 162.019531 L 183.191406 188.398438 L 160.269531 189.839844 L 212.886719 189.359375 L 184.328125 188.21875 L 183.191406 162.019531 " fill-opacity="1" fill-rule="nonzero"/><g clip-path="url(#d62ed8c669)"><path fill="#f9a723" d="M 212.886719 189.359375 L 197.289062 201.230469 L 146.773438 217.90625 L 139.265625 251.773438 L 209.109375 200.691406 L 212.886719 189.359375 " fill-opacity="1" fill-rule="nonzero"/></g><g clip-path="url(#028556532d)"><path fill="#f46f28" d="M 158.34375 168.125 C 158.34375 168.125 132.726562 140.78125 125.527344 123.519531 L 158.34375 168.125 " fill-opacity="1" fill-rule="nonzero"/></g></svg>