<svg xmlns="http://www.w3.org/2000/svg" xmlns:xlink="http://www.w3.org/1999/xlink" width="500" zoomAndPan="magnify" viewBox="0 0 375 374.999991" height="500" preserveAspectRatio="xMidYMid meet" version="1.0"><defs><clipPath id="900478839d"><path d="M 177 125 L 317.609375 125 L 317.609375 196 L 177 196 Z M 177 125 " clip-rule="nonzero"/></clipPath><clipPath id="14798b619e"><path d="M 56 51.789062 L 154 51.789062 L 154 213 L 56 213 Z M 56 51.789062 " clip-rule="nonzero"/></clipPath><clipPath id="923dfb073a"><path d="M 84 190 L 240 190 L 240 321.789062 L 84 321.789062 Z M 84 190 " clip-rule="nonzero"/></clipPath><clipPath id="075505bb52"><path d="M 84 190 L 240 190 L 240 321.789062 L 84 321.789062 Z M 84 190 " clip-rule="nonzero"/></clipPath><clipPath id="aac048c8cd"><path d="M 56 51.789062 L 126 51.789062 L 126 146 L 56 146 Z M 56 51.789062 " clip-rule="nonzero"/></clipPath></defs><rect x="-37.5" width="450" fill="#ffffff" y="-37.499999" height="449.999989" fill-opacity="1"/><rect x="-37.5" width="450" fill="#ffffff" y="-37.499999" height="449.999989" fill-opacity="1"/><g clip-path="url(#900478839d)"><path fill="#f9a723" d="M 226.09375 195.957031 L 288.664062 187.875 L 317.425781 125.773438 L 177.277344 165.15625 L 226.09375 195.957031 " fill-opacity="1" fill-rule="nonzero"/></g><g clip-path="url(#14798b619e)"><path fill="#f2582c" d="M 122.144531 212.617188 L 56.042969 51.796875 L 153.648438 184.632812 L 122.144531 212.617188 " fill-opacity="1" fill-rule="nonzero"/></g><path fill="#e14f20" d="M 144.71875 172.476562 L 106.652344 174.925781 L 121.640625 210.851562 Z M 144.71875 172.476562 " fill-opacity="1" fill-rule="nonzero"/><path fill="#c14620" d="M 204.710938 204.035156 L 235.296875 265.550781 L 293.960938 87.148438 L 287.402344 84.300781 L 204.710938 204.035156 " fill-opacity="1" fill-rule="nonzero"/><path fill="#f2582c" d="M 206.917969 182.828125 L 274.03125 79.324219 L 291.691406 87.90625 L 226.597656 265.628906 L 206.917969 182.828125 " fill-opacity="1" fill-rule="nonzero"/><path fill="#f46f28" d="M 274.03125 79.324219 L 309.355469 96.867188 L 301.027344 74.148438 L 274.03125 79.324219 " fill-opacity="1" fill-rule="nonzero"/><path fill="#d34b1f" d="M 274.03125 79.324219 L 291.691406 88.09375 L 291.425781 89.277344 C 291.425781 89.277344 274.945312 81.46875 274.03125 79.324219 " fill-opacity="1" fill-rule="nonzero"/><path fill="#f46f28" d="M 226.597656 265.628906 L 239.71875 190.402344 L 177.28125 132.84375 L 129.089844 191.410156 L 139.949219 265.628906 L 187.746094 235.839844 L 226.597656 265.628906 " fill-opacity="1" fill-rule="nonzero"/><path fill="#f2582c" d="M 193.925781 240.386719 L 214.167969 256.101562 L 232.652344 225.746094 L 239.71875 191.410156 L 193.925781 240.386719 " fill-opacity="1" fill-rule="nonzero"/><g clip-path="url(#923dfb073a)"><path fill="#f68b25" d="M 129.089844 191.410156 L 239.71875 190.402344 L 231.769531 214.257812 L 84.929688 321.800781 L 109.15625 212.363281 L 129.089844 191.410156 " fill-opacity="1" fill-rule="nonzero"/></g><path fill="#f2582c" d="M 129.089844 191.410156 L 172.542969 179.417969 L 177.28125 132.84375 L 186.167969 179.230469 L 239.71875 190.402344 L 129.089844 191.410156 " fill-opacity="1" fill-rule="nonzero"/><path fill="#d84d20" d="M 177.28125 132.84375 L 177.28125 188.382812 L 129.089844 191.410156 L 239.71875 190.402344 L 179.667969 188.003906 L 177.28125 132.84375 " fill-opacity="1" fill-rule="nonzero"/><g clip-path="url(#075505bb52)"><path fill="#f9a723" d="M 239.71875 190.402344 L 206.917969 215.394531 L 100.714844 250.5 L 84.929688 321.800781 L 231.769531 214.257812 L 239.71875 190.402344 " fill-opacity="1" fill-rule="nonzero"/></g><g clip-path="url(#aac048c8cd)"><path fill="#f46f28" d="M 125.039062 145.695312 C 125.039062 145.695312 71.179688 88.136719 56.042969 51.796875 L 125.039062 145.695312 " fill-opacity="1" fill-rule="nonzero"/></g></svg>