<svg xmlns="http://www.w3.org/2000/svg" xmlns:xlink="http://www.w3.org/1999/xlink" width="500" zoomAndPan="magnify" viewBox="0 0 375 374.999991" height="500" preserveAspectRatio="xMidYMid meet" version="1.0"><defs><clipPath id="f12474e9dc"><path d="M 186 180 L 202.46875 180 L 202.46875 189 L 186 189 Z M 186 180 " clip-rule="nonzero"/></clipPath><clipPath id="9c21e6a6bb"><path d="M 172.46875 172.003906 L 184 172.003906 L 184 191 L 172.46875 191 Z M 172.46875 172.003906 " clip-rule="nonzero"/></clipPath><clipPath id="0d0ccbc487"><path d="M 175 187 L 194 187 L 194 202.753906 L 175 202.753906 Z M 175 187 " clip-rule="nonzero"/></clipPath><clipPath id="6687c7ba8a"><path d="M 175 187 L 194 187 L 194 202.753906 L 175 202.753906 Z M 175 187 " clip-rule="nonzero"/></clipPath><clipPath id="169d564840"><path d="M 172.46875 172.003906 L 181 172.003906 L 181 183 L 172.46875 183 Z M 172.46875 172.003906 " clip-rule="nonzero"/></clipPath></defs><rect x="-37.5" width="450" fill="#ffffff" y="-37.499999" height="449.999989" fill-opacity="1"/><rect x="-37.5" width="450" fill="#ffffff" y="-37.499999" height="449.999989" fill-opacity="1"/><g clip-path="url(#f12474e9dc)"><path fill="#f9a723" d="M 191.980469 188.425781 L 199.152344 187.503906 L 202.449219 180.433594 L 186.386719 184.917969 L 191.980469 188.425781 " fill-opacity="1" fill-rule="nonzero"/></g><g clip-path="url(#9c21e6a6bb)"><path fill="#f2582c" d="M 180.070312 190.324219 L 172.492188 172.007812 L 183.679688 187.136719 L 180.070312 190.324219 " fill-opacity="1" fill-rule="nonzero"/></g><path fill="#e14f20" d="M 182.65625 185.75 L 178.292969 186.03125 L 180.011719 190.121094 Z M 182.65625 185.75 " fill-opacity="1" fill-rule="nonzero"/><path fill="#c14620" d="M 189.53125 189.34375 L 193.035156 196.351562 L 199.757812 176.03125 L 199.007812 175.707031 L 189.53125 189.34375 " fill-opacity="1" fill-rule="nonzero"/><path fill="#f2582c" d="M 189.785156 186.929688 L 197.476562 175.140625 L 199.5 176.121094 L 192.039062 196.359375 L 189.785156 186.929688 " fill-opacity="1" fill-rule="nonzero"/><path fill="#f46f28" d="M 197.476562 175.140625 L 201.523438 177.140625 L 200.570312 174.550781 L 197.476562 175.140625 " fill-opacity="1" fill-rule="nonzero"/><path fill="#d34b1f" d="M 197.476562 175.140625 L 199.5 176.140625 L 199.46875 176.273438 C 199.46875 176.273438 197.578125 175.386719 197.476562 175.140625 " fill-opacity="1" fill-rule="nonzero"/><path fill="#f46f28" d="M 192.039062 196.359375 L 193.542969 187.792969 L 186.386719 181.238281 L 180.863281 187.90625 L 182.109375 196.359375 L 187.585938 192.96875 L 192.039062 196.359375 " fill-opacity="1" fill-rule="nonzero"/><path fill="#f2582c" d="M 188.292969 193.484375 L 190.613281 195.273438 L 192.734375 191.816406 L 193.542969 187.90625 L 188.292969 193.484375 " fill-opacity="1" fill-rule="nonzero"/><g clip-path="url(#0d0ccbc487)"><path fill="#f68b25" d="M 180.863281 187.90625 L 193.542969 187.792969 L 192.632812 190.507812 L 175.804688 202.757812 L 178.582031 190.292969 L 180.863281 187.90625 " fill-opacity="1" fill-rule="nonzero"/></g><path fill="#f2582c" d="M 180.863281 187.90625 L 185.84375 186.542969 L 186.386719 181.238281 L 187.40625 186.519531 L 193.542969 187.792969 L 180.863281 187.90625 " fill-opacity="1" fill-rule="nonzero"/><path fill="#d84d20" d="M 186.386719 181.238281 L 186.386719 187.5625 L 180.863281 187.90625 L 193.542969 187.792969 L 186.660156 187.519531 L 186.386719 181.238281 " fill-opacity="1" fill-rule="nonzero"/><g clip-path="url(#6687c7ba8a)"><path fill="#f9a723" d="M 193.542969 187.792969 L 189.785156 190.636719 L 177.613281 194.636719 L 175.804688 202.757812 L 192.632812 190.507812 L 193.542969 187.792969 " fill-opacity="1" fill-rule="nonzero"/></g><g clip-path="url(#169d564840)"><path fill="#f46f28" d="M 180.402344 182.699219 C 180.402344 182.699219 174.226562 176.144531 172.492188 172.007812 L 180.402344 182.699219 " fill-opacity="1" fill-rule="nonzero"/></g></svg>