<svg xmlns="http://www.w3.org/2000/svg" xmlns:xlink="http://www.w3.org/1999/xlink" width="500" zoomAndPan="magnify" viewBox="0 0 375 374.999991" height="500" preserveAspectRatio="xMidYMid meet" version="1.0"><defs><clipPath id="4e42b491b9"><path d="M 185 176 L 210.882812 176 L 210.882812 190 L 185 190 Z M 185 176 " clip-rule="nonzero"/></clipPath><clipPath id="ed0e1506dd"><path d="M 164.382812 163.667969 L 182 163.667969 L 182 193 L 164.382812 193 Z M 164.382812 163.667969 " clip-rule="nonzero"/></clipPath><clipPath id="11ccb7afaa"><path d="M 169 188 L 198 188 L 198 211.667969 L 169 211.667969 Z M 169 188 " clip-rule="nonzero"/></clipPath><clipPath id="829d3ea502"><path d="M 169 188 L 198 188 L 198 211.667969 L 169 211.667969 Z M 169 188 " clip-rule="nonzero"/></clipPath><clipPath id="d80f92bb40"><path d="M 164.382812 163.667969 L 177 163.667969 L 177 181 L 164.382812 181 Z M 164.382812 163.667969 " clip-rule="nonzero"/></clipPath></defs><rect x="-37.5" width="450" fill="#ffffff" y="-37.499999" height="449.999989" fill-opacity="1"/><rect x="-37.5" width="450" fill="#ffffff" y="-37.499999" height="449.999989" fill-opacity="1"/><g clip-path="url(#4e42b491b9)"><path fill="#f9a723" d="M 194.625 189.296875 L 205.738281 187.859375 L 210.847656 176.820312 L 185.953125 183.820312 L 194.625 189.296875 " fill-opacity="1" fill-rule="nonzero"/></g><g clip-path="url(#ed0e1506dd)"><path fill="#f2582c" d="M 176.15625 192.257812 L 164.414062 163.667969 L 181.753906 187.28125 L 176.15625 192.257812 " fill-opacity="1" fill-rule="nonzero"/></g><path fill="#e14f20" d="M 180.167969 185.121094 L 173.40625 185.558594 L 176.066406 191.945312 Z M 180.167969 185.121094 " fill-opacity="1" fill-rule="nonzero"/><path fill="#c14620" d="M 190.824219 190.730469 L 196.257812 201.667969 L 206.679688 169.953125 L 205.515625 169.445312 L 190.824219 190.730469 " fill-opacity="1" fill-rule="nonzero"/><path fill="#f2582c" d="M 191.21875 186.960938 L 203.140625 168.5625 L 206.277344 170.085938 L 194.714844 201.683594 L 191.21875 186.960938 " fill-opacity="1" fill-rule="nonzero"/><path fill="#f46f28" d="M 203.140625 168.5625 L 209.414062 171.679688 L 207.9375 167.640625 L 203.140625 168.5625 " fill-opacity="1" fill-rule="nonzero"/><path fill="#d34b1f" d="M 203.140625 168.5625 L 206.277344 170.121094 L 206.230469 170.332031 C 206.230469 170.332031 203.300781 168.941406 203.140625 168.5625 " fill-opacity="1" fill-rule="nonzero"/><path fill="#f46f28" d="M 194.714844 201.683594 L 197.042969 188.308594 L 185.953125 178.074219 L 177.390625 188.488281 L 179.320312 201.683594 L 187.8125 196.386719 L 194.714844 201.683594 " fill-opacity="1" fill-rule="nonzero"/><path fill="#f2582c" d="M 188.910156 197.195312 L 192.503906 199.988281 L 195.789062 194.59375 L 197.042969 188.488281 L 188.910156 197.195312 " fill-opacity="1" fill-rule="nonzero"/><g clip-path="url(#11ccb7afaa)"><path fill="#f68b25" d="M 177.390625 188.488281 L 197.042969 188.308594 L 195.632812 192.550781 L 169.546875 211.667969 L 173.851562 192.214844 L 177.390625 188.488281 " fill-opacity="1" fill-rule="nonzero"/></g><path fill="#f2582c" d="M 177.390625 188.488281 L 185.109375 186.355469 L 185.953125 178.074219 L 187.53125 186.324219 L 197.042969 188.308594 L 177.390625 188.488281 " fill-opacity="1" fill-rule="nonzero"/><path fill="#d84d20" d="M 185.953125 178.074219 L 185.953125 187.949219 L 177.390625 188.488281 L 197.042969 188.308594 L 186.375 187.882812 L 185.953125 178.074219 " fill-opacity="1" fill-rule="nonzero"/><g clip-path="url(#829d3ea502)"><path fill="#f9a723" d="M 197.042969 188.308594 L 191.21875 192.75 L 172.351562 198.992188 L 169.546875 211.667969 L 195.632812 192.550781 L 197.042969 188.308594 " fill-opacity="1" fill-rule="nonzero"/></g><g clip-path="url(#d80f92bb40)"><path fill="#f46f28" d="M 176.671875 180.359375 C 176.671875 180.359375 167.101562 170.128906 164.414062 163.667969 L 176.671875 180.359375 " fill-opacity="1" fill-rule="nonzero"/></g></svg>