<svg xmlns="http://www.w3.org/2000/svg" xmlns:xlink="http://www.w3.org/1999/xlink" width="500" zoomAndPan="magnify" viewBox="0 0 375 374.999991" height="500" preserveAspectRatio="xMidYMid meet" version="1.0"><defs><clipPath id="edbc174220"><path d="M 185 172 L 220.890625 172 L 220.890625 190 L 185 190 Z M 185 172 " clip-rule="nonzero"/></clipPath><clipPath id="4d8bac1144"><path d="M 154.140625 153.105469 L 180 153.105469 L 180 195 L 154.140625 195 Z M 154.140625 153.105469 " clip-rule="nonzero"/></clipPath><clipPath id="c58603cbd0"><path d="M 161 188 L 202 188 L 202 222.105469 L 161 222.105469 Z M 161 188 " clip-rule="nonzero"/></clipPath><clipPath id="f62eb7e6ef"><path d="M 161 188 L 202 188 L 202 222.105469 L 161 222.105469 Z M 161 188 " clip-rule="nonzero"/></clipPath><clipPath id="f0fba1a158"><path d="M 154.140625 153.105469 L 172 153.105469 L 172 178 L 154.140625 178 Z M 154.140625 153.105469 " clip-rule="nonzero"/></clipPath></defs><rect x="-37.5" width="450" fill="#ffffff" y="-37.499999" height="449.999989" fill-opacity="1"/><rect x="-37.5" width="450" fill="#ffffff" y="-37.499999" height="449.999989" fill-opacity="1"/><g clip-path="url(#edbc174220)"><path fill="#f9a723" d="M 197.550781 189.949219 L 213.507812 187.886719 L 220.84375 172.015625 L 185.101562 182.078125 L 197.550781 189.949219 " fill-opacity="1" fill-rule="nonzero"/></g><g clip-path="url(#4d8bac1144)"><path fill="#f2582c" d="M 171.042969 194.207031 L 154.1875 153.109375 L 179.078125 187.054688 L 171.042969 194.207031 " fill-opacity="1" fill-rule="nonzero"/></g><path fill="#e14f20" d="M 176.800781 183.949219 L 167.09375 184.574219 L 170.914062 193.757812 Z M 176.800781 183.949219 " fill-opacity="1" fill-rule="nonzero"/><path fill="#c14620" d="M 192.097656 192.015625 L 199.898438 207.734375 L 214.859375 162.144531 L 213.1875 161.414062 L 192.097656 192.015625 " fill-opacity="1" fill-rule="nonzero"/><path fill="#f2582c" d="M 192.660156 186.59375 L 209.777344 160.144531 L 214.28125 162.335938 L 197.679688 207.753906 L 192.660156 186.59375 " fill-opacity="1" fill-rule="nonzero"/><path fill="#f46f28" d="M 209.777344 160.144531 L 218.785156 164.628906 L 216.660156 158.820312 L 209.777344 160.144531 " fill-opacity="1" fill-rule="nonzero"/><path fill="#d34b1f" d="M 209.777344 160.144531 L 214.28125 162.386719 L 214.210938 162.6875 C 214.210938 162.6875 210.007812 160.691406 209.777344 160.144531 " fill-opacity="1" fill-rule="nonzero"/><path fill="#f46f28" d="M 197.679688 207.753906 L 201.027344 188.53125 L 185.101562 173.820312 L 172.8125 188.789062 L 175.582031 207.753906 L 187.773438 200.144531 L 197.679688 207.753906 " fill-opacity="1" fill-rule="nonzero"/><path fill="#f2582c" d="M 189.347656 201.304688 L 194.511719 205.320312 L 199.222656 197.5625 L 201.027344 188.789062 L 189.347656 201.304688 " fill-opacity="1" fill-rule="nonzero"/><g clip-path="url(#c58603cbd0)"><path fill="#f68b25" d="M 172.8125 188.789062 L 201.027344 188.53125 L 199 194.628906 L 161.554688 222.109375 L 167.730469 194.144531 L 172.8125 188.789062 " fill-opacity="1" fill-rule="nonzero"/></g><path fill="#f2582c" d="M 172.8125 188.789062 L 183.894531 185.722656 L 185.101562 173.820312 L 187.371094 185.675781 L 201.027344 188.53125 L 172.8125 188.789062 " fill-opacity="1" fill-rule="nonzero"/><path fill="#d84d20" d="M 185.101562 173.820312 L 185.101562 188.015625 L 172.8125 188.789062 L 201.027344 188.53125 L 185.710938 187.917969 L 185.101562 173.820312 " fill-opacity="1" fill-rule="nonzero"/><g clip-path="url(#f62eb7e6ef)"><path fill="#f9a723" d="M 201.027344 188.53125 L 192.660156 194.917969 L 165.578125 203.890625 L 161.554688 222.109375 L 199 194.628906 L 201.027344 188.53125 " fill-opacity="1" fill-rule="nonzero"/></g><g clip-path="url(#f0fba1a158)"><path fill="#f46f28" d="M 171.78125 177.105469 C 171.78125 177.105469 158.046875 162.394531 154.1875 153.109375 L 171.78125 177.105469 " fill-opacity="1" fill-rule="nonzero"/></g></svg>